<svg width="51" height="32" viewBox="0 0 51 32" fill="none" xmlns="http://www.w3.org/2000/svg">
<path d="M13.9131 13.6356C13.9131 13.6356 13.0504 8.83338 18.4023 5.62445L31.4426 0.150391L40.5339 2.41755C40.5339 2.41755 49.2422 9.79342 45.9685 10.8225L35.438 15.1132C35.438 15.1132 36.3128 13.4996 40.6367 15.8358C40.6367 15.8358 45.132 16.2843 47.4643 23.1873L27.5017 31.438L13.8627 26.9808C13.8627 26.9808 -0.653116 24.0154 0.0221803 22.3369L4.24127 13.8914L13.6974 11.5592L13.9131 14.1694" fill="#FBE38F"/>
<path d="M38.6995 13.983L42.463 15.3652C44.1462 15.8685 48.063 21.6531 48.1678 23.0374C48.2283 23.8371 47.9561 23.8939 47.3635 24.2268C44.3337 25.9337 39.0583 27.2855 35.6234 28.6434C32.9968 29.6826 30.4428 30.8598 27.8605 32.0005C24.3349 31.7975 20.9584 30.5797 17.6827 29.3538C15.0319 28.3612 14.4917 28.1116 11.6393 27.523C8.98849 26.975 3.4309 25.2396 1.19738 23.829C0.274141 23.2464 -0.149179 22.8628 0.0786078 21.6815C0.328568 20.3927 3.27367 14.6933 4.24126 13.8916C6.10185 12.3511 11.216 11.8843 13.4878 10.6177C14.8001 8.62459 15.6266 5.37303 17.977 4.38052C20.8697 3.16271 29.2615 0.396249 32.1985 0.0268468C34.2768 -0.234982 40.6105 1.47604 42.3945 2.64717C43.3641 3.28449 46.4564 7.90405 46.9079 9.06097C47.307 10.0819 47.3534 10.4615 46.4241 11.1049L38.6975 13.983H38.6995ZM37.0849 3.42454C37.2501 3.36365 37.6594 3.48137 37.8851 3.32508L39.3022 2.61469C36.9317 2.08698 34.8634 0.946294 32.3517 1.19392C30.7189 1.35426 22.18 3.93196 20.7003 4.68497C20.5451 4.76413 20.3496 4.84126 20.3556 5.04626C20.6842 5.02596 21.037 5.08482 21.3635 5.04626L27.3062 7.25861C30.6322 6.19506 33.8515 4.63017 37.0869 3.42251L37.0849 3.42454ZM39.3022 4.03344C36.9216 4.81893 34.5792 5.75664 32.2469 6.67203C32.0877 6.73495 31.9586 6.82832 31.8437 6.875C31.2531 7.11044 28.3241 7.96291 28.1064 8.28766C27.9573 8.50687 28.1568 10.6035 28.2213 11.0338C28.2496 11.2206 28.4149 11.32 28.4169 11.3403V16.8205C28.7837 16.9341 28.7757 16.6358 28.82 16.6175C33.8575 14.6893 38.9475 12.7753 43.9386 10.7314C44.499 10.502 45.0755 10.3133 45.6541 10.1225C45.8738 10.0494 46.0129 10.2828 45.9564 9.81804C45.8738 9.13607 42.8561 4.62611 42.2232 4.03547C41.056 2.9435 40.4996 3.63765 39.3022 4.03547V4.03344ZM16.9268 6.875C16.2716 7.85534 13.7579 12.1704 13.6994 13.0838C13.639 14.0276 15.6084 14.5086 16.3865 14.8253C18.8418 15.8259 23.204 17.4152 25.7419 17.7846C26.4192 17.884 27.2376 17.9956 27.4009 17.1168C27.5642 16.2379 27.4835 13.4837 27.415 12.4465C27.3586 11.6021 27.0038 9.03255 26.5764 8.41959C26.0039 7.59554 20.7306 6.16664 19.5453 6.0611C17.9105 5.21472 17.7411 5.6511 16.9247 6.87297L16.9268 6.875ZM12.8951 12.1542C11.5768 12.6434 9.68999 12.9438 8.46236 13.4735C8.22047 13.577 7.90802 13.6765 7.8556 13.9769C10.198 14.3625 12.5121 15.1642 14.6569 16.177C15.046 16.2359 15.5741 16.0045 15.7173 15.6047C13.9937 15.0851 11.6957 14.3544 12.8951 12.1542ZM13.7015 25.5481C13.9514 24.9392 14.3243 24.4744 14.5078 23.7214C14.8545 22.2986 14.8243 20.2953 14.5078 18.8501C14.3909 18.3143 14.3647 17.9063 13.9958 17.4375C12.8669 16.0045 8.85141 15.5722 7.1279 15.0242C6.71264 14.8923 7.0513 14.5371 6.04137 14.5878C4.86213 14.6487 4.44888 15.4098 3.8643 16.3536C3.38454 17.1249 1.23367 21.3751 1.20545 22.0205C1.16916 22.8303 2.31817 23.1957 2.96323 23.4717C5.17458 24.4115 8.96228 25.8322 11.2704 26.2707C11.9558 26.4006 12.6754 26.4533 13.3688 26.5508C13.8688 26.3884 13.6087 25.7734 13.6994 25.5501L13.7015 25.5481ZM39.909 15.8076C38.7701 15.763 37.7743 14.7157 36.6071 14.7969C35.7302 14.8577 32.4807 16.2887 31.4466 16.721C29.449 17.5552 27.6025 19.1018 25.3468 18.7953C24.2744 18.6492 22.8835 17.9307 21.8715 17.8272C21.4563 17.7846 21.2809 17.7399 21.3635 18.2392C23.7624 18.6939 26.0967 19.4651 28.3181 20.4597C31.8518 18.7791 36.1314 17.8272 39.6268 16.2318C39.8626 16.1243 39.9917 16.3293 39.911 15.8076H39.909ZM19.7489 17.2304C19.0353 17.1756 18.0415 16.5099 17.4005 16.4754C17.2473 16.4673 15.6044 16.9727 15.5399 17.0478C15.2758 17.3522 16.0841 20.2364 15.9209 20.8819L17.723 18.3366L19.7469 17.2325L19.7489 17.2304ZM41.1165 16.8205L28.822 21.4968C29.6264 23.6016 29.3401 25.7226 29.4167 27.8985C29.4268 28.1623 29.6243 28.3612 29.6264 28.3897C29.6485 28.9153 29.5417 29.3132 29.4248 29.8084L29.8864 29.7698C34.0974 27.9573 38.4879 26.5731 42.7251 24.8336C44.1321 24.2552 45.4565 23.3784 46.9623 23.1104C45.8254 21.3568 44.632 18.3711 43.0436 17.0112C42.4711 16.5221 41.7797 16.3902 41.1165 16.8205ZM14.9109 25.954C14.8948 26.0515 14.5481 26.3255 14.7235 26.6259C14.8767 27.0663 19.4264 28.7854 20.1984 29.0534C21.4704 29.4938 27.282 31.3692 28.1871 30.7969C28.4713 30.2894 28.3886 29.7455 28.4169 29.2015C28.4632 28.3491 28.556 27.1008 28.2153 26.36C28.2475 23.2302 28.4955 21.505 25.2359 20.3277C24.3671 20.0152 19.9404 18.8136 19.253 18.8583C18.4971 18.907 18.2209 19.5626 17.85 20.0862C16.8844 21.4481 15.169 24.3851 14.9089 25.954H14.9109Z" fill="#444543"/>
<path d="M43.1323 9.31052C45.2388 8.77671 45.396 9.51146 43.5354 10.3254C40.4573 11.671 35.7725 13.1263 32.4908 14.1229C31.9949 14.2731 28.3584 15.3042 30.3258 14.1757C32.5654 12.8909 40.5319 9.97016 43.1343 9.31255L43.1323 9.31052Z" fill="#444543"/>
<path d="M25.5948 9.10522C24.992 8.91037 24.2905 9.01389 23.6939 8.89008C23.3875 8.82716 23.1597 8.58359 22.8553 8.51661C22.0348 8.33394 18.7249 7.45103 18.229 7.65806C17.7815 7.84479 15.5419 12.1274 15.5681 12.4562C15.5943 12.785 16.3402 13.0448 16.6204 13.1686C19.2309 14.3195 22.3473 14.7315 25.0545 15.6367C25.3992 15.6814 25.5 16.3065 25.3932 16.4101C24.8913 16.8911 14.9997 13.8811 14.7316 13.0266C14.5058 12.3101 16.7534 7.88741 17.3602 7.20544C17.9669 6.52346 18.5152 6.59856 19.3579 6.76094C20.7185 7.02277 23.0286 7.87929 24.3813 8.39889C24.7723 8.54909 25.4133 8.69523 25.5948 9.10319V9.10522Z" fill="#444543"/>
<path d="M41.5197 17.4287C43.0154 16.9619 42.4429 17.2562 42.326 18.2406H42.1244C41.0742 18.5187 40.1025 19.0769 39.1007 19.4584C37.2603 20.1587 34.4704 21.3866 32.6602 21.8027C32.4122 21.8595 31.4729 22.1193 31.4426 21.6951C34.7969 20.4509 38.1069 18.4943 41.5197 17.4308V17.4287Z" fill="#444543"/>
<path d="M16.322 26.359C15.7878 25.1189 18.1483 20.7693 19.0696 20.2964C20.3032 19.6631 22.8976 20.2517 24.1796 20.7794C24.863 21.0595 25.9556 21.3437 25.0928 22.0886C23.4943 21.4959 21.0834 20.3268 19.4768 21.3153C18.7228 21.7801 16.9227 24.8591 17.2755 25.6913C17.6383 26.5498 20.9886 27.656 22.0409 28.2223C22.3231 28.3745 22.6779 28.3035 22.571 28.7947C20.0533 28.1391 18.5797 27.449 16.322 26.359Z" fill="#444543"/>
<path d="M5.23507 16.0081C5.5576 15.6915 6.0676 15.8133 6.01922 16.2821C5.93657 17.0635 2.35447 20.6561 3.96309 21.7034C5.24112 22.2697 6.82957 22.9801 7.65606 24.1248C6.72677 23.8244 2.92697 22.6411 2.65483 21.7521C2.167 20.1547 4.44487 17.3254 5.23708 16.0061L5.23507 16.0081Z" fill="#444543"/>
<path d="M48.577 12.213C48.6899 12.7346 48.4903 12.7265 48.2444 12.9924C47.8876 13.378 45.8032 15.0342 45.3537 14.6466C45.2388 13.8651 48.4016 12.0222 48.577 12.213Z" fill="#444543"/>
<path d="M12.3771 9.40531C12.115 9.55754 9.14974 10.3207 9.05298 10.1177C9.10337 9.56972 9.22835 9.70774 9.48839 9.55551C9.78875 9.38096 11.7663 8.64418 12.0565 8.62389C12.8044 8.57111 12.9233 9.08462 12.3771 9.40531Z" fill="#444543"/>
<path d="M50.998 15.2549C51.0443 15.5695 50.623 15.4944 50.3912 15.5553C49.6454 15.7481 48.1859 16.1134 47.4683 16.085C46.7507 16.0566 46.1923 15.8597 46.8635 15.2549H50.996H50.998Z" fill="#444543"/>
<path d="M7.64398 6.48671L9.3292 6.47656C10.0831 6.60849 12.9435 6.72013 11.5889 7.72888L7.64398 6.48671Z" fill="#444543"/>
<path d="M13.26 5.95073C13.3043 6.14558 13.1693 6.32825 13.127 6.51092C12.2682 5.69093 11.4034 4.80193 10.7846 3.77491C10.7221 3.67139 10.1516 3.34664 10.581 3.15788C10.7584 3.08075 13.2177 5.76197 13.26 5.95073Z" fill="#444543"/>
<path d="M49.1817 19.3126C48.2585 19.0386 47.2405 18.4459 46.4564 17.8979C46.154 17.6868 45.6823 17.5549 45.7549 17.084C46.9764 17.3275 48.3694 18.3749 49.1797 19.3126H49.1817Z" fill="#444543"/>
</svg>
