<svg width="74" height="75" viewBox="0 0 74 75" fill="none" xmlns="http://www.w3.org/2000/svg">
<path d="M74 37.5C74 39.8928 70.7296 41.9521 70.2845 44.2076C69.8201 46.5416 72.0648 49.6993 71.194 51.8567C70.3039 54.0533 66.511 54.6614 65.2144 56.603C63.9179 58.5643 64.7887 62.3496 63.1632 64.0167C61.5183 65.6838 57.7835 64.7816 55.8483 66.0957C53.9325 67.3902 53.3133 71.2343 51.1653 72.1561C49.0366 73.0387 45.9404 70.7832 43.6182 71.2343C41.3734 71.6854 39.3609 75 37 75C34.6391 75 32.6072 71.6854 30.3818 71.2343C28.079 70.7636 24.9634 73.0387 22.8347 72.1561C20.6674 71.2539 20.0675 67.4098 18.1517 66.0957C16.2165 64.7816 12.4817 65.6642 10.8368 64.0167C9.19195 62.3496 10.0821 58.5643 8.78557 56.603C7.50837 54.6614 3.71548 54.0337 2.80596 51.8567C1.93515 49.6993 4.16057 46.5612 3.71548 44.2076C3.2704 41.9325 0 39.8928 0 37.5C0 35.1072 3.2704 33.0479 3.71548 30.7924C4.17992 28.4584 1.93515 25.3007 2.80596 23.1433C3.69613 20.9467 7.48902 20.3386 8.78557 18.397C10.0821 16.4357 9.2113 12.6504 10.8368 10.9833C12.4817 9.31616 16.2165 10.2184 18.1517 8.90429C20.0675 7.60983 20.6867 3.76569 22.8347 2.84388C24.9634 1.9613 28.0596 4.21678 30.3818 3.76569C32.6266 3.31459 34.6391 0 37 0C39.3609 0 41.3928 3.31459 43.6182 3.76569C45.921 4.2364 49.0366 1.9613 51.1653 2.84388C53.3326 3.74608 53.9325 7.59022 55.8483 8.90429C57.7835 10.2184 61.5183 9.33577 63.1632 10.9833C64.8081 12.6504 63.9179 16.4357 65.2144 18.397C66.4916 20.3386 70.2845 20.9663 71.194 23.1433C72.0648 25.3007 69.8394 28.4388 70.2845 30.7924C70.7296 33.0675 74 35.1072 74 37.5Z" fill="#91CFDA" fill-opacity="0.5"/>
</svg>
