<svg width="37" height="42" viewBox="0 0 37 42" fill="none" xmlns="http://www.w3.org/2000/svg">
<path d="M27.3111 5.4562C28.4902 5.41332 29.061 6.03409 29.7802 6.81705C32.0728 9.30946 34.0049 12.5252 36.3331 15.0362C36.5716 15.4072 36.6091 15.8527 36.5078 16.2759L20.3676 41.269C19.5639 42.257 17.8722 42.2589 17.1249 41.1907C13.3414 35.4695 9.32703 29.8937 5.52105 24.1894C4.19356 22.1984 1.8728 19.2157 0.902058 17.2192C0.496487 16.3859 0.374441 16.082 0.954632 15.286C1.43155 14.6317 7.44376 8.74648 7.89439 8.56938L27.3092 5.45806L27.3111 5.4562ZM19.8343 7.83303L34.6639 14.2682C33.5317 13.2205 29.1023 6.66419 28.1523 6.38269C27.7655 6.26898 27.2998 6.33795 26.8999 6.36778C25.24 6.49827 21.9598 7.07803 20.3225 7.47883C20.1009 7.53289 19.8719 7.54781 19.8343 7.83116V7.83303ZM16.8282 8.20959L8.57785 9.61518L3.31107 15.1033L16.8282 8.20959ZM27.1571 15.4762C25.5893 13.9755 23.7248 12.7377 22.0856 11.2855C21.3458 10.6312 20.0559 8.98136 19.3762 8.57124C19.1302 8.42211 18.9312 8.33822 18.6345 8.37923L13.2626 15.8471L27.1571 15.4743V15.4762ZM17.016 9.3281L4.06213 16.0354C6.87859 16.1193 9.67439 15.959 12.4815 15.821L13.5949 13.8525L17.016 9.3281ZM34.6658 15.1071L22.2752 10.0738L24.1548 11.6546L28.0396 15.4408C30.0243 15.2152 32.0221 15.3643 34.0105 15.2916C34.2377 15.2842 34.709 15.4314 34.6639 15.1071H34.6658ZM35.7924 15.6663L28.4977 16.0653C25.9272 24.5137 22.5663 32.69 19.1753 40.829L35.7924 15.6663ZM28.0959 16.0392L13.0748 16.7848C15.6547 24.3236 17.093 32.2799 18.7096 40.0834C18.9668 40.1393 18.9105 39.8895 18.9856 39.7124C19.823 37.7252 20.4032 35.3483 21.1449 33.2772C23.231 27.4442 25.5254 21.6727 28.0959 16.0392ZM12.6993 16.783L2.74778 17.249L18.5181 40.8309C16.7944 34.4461 14.7741 28.0706 13.3902 21.5963C13.0523 20.0155 12.6505 18.4067 12.6993 16.783Z" fill="#424242"/>
<path d="M28.0959 16.0391C25.5254 21.6726 23.2309 27.4441 21.1449 33.2771C20.4051 35.3482 19.8249 37.7251 18.9856 39.7123C18.9105 39.8894 18.9668 40.1392 18.7096 40.0833C17.0929 32.2798 15.6546 24.3216 13.0748 16.7847L28.0959 16.0391Z" fill="#A3F1FF"/>
<path d="M12.6992 16.7831C12.6504 18.4068 13.0522 20.0156 13.3902 21.5964C14.774 28.0707 16.7944 34.4462 18.518 40.8311L2.74774 17.2473L12.6992 16.7812V16.7831Z" fill="#A3F1FF"/>
<path d="M27.1571 15.4765L13.2625 15.8494L18.6344 8.38147C18.9311 8.34046 19.1283 8.42435 19.3761 8.57349C20.0558 8.98361 21.3458 10.6334 22.0855 11.2877C23.7247 12.7399 25.5911 13.9759 27.1571 15.4784V15.4765Z" fill="#A3F1FF"/>
<path d="M17.0159 9.32812L13.5949 13.8525L12.4814 15.8211C9.67434 15.9609 6.87853 16.1212 4.06207 16.0354L17.0159 9.32812Z" fill="#A3F1FF"/>
<path d="M16.8282 8.20996L3.31104 15.1037L8.57782 9.61555L16.8282 8.20996Z" fill="#A3F1FF"/>
<path d="M34.6658 15.1075C34.7108 15.4319 34.2377 15.2827 34.0124 15.2921C32.0221 15.3648 30.0261 15.2156 28.0415 15.4412L24.1566 11.655L22.2771 10.0742L34.6676 15.1075H34.6658Z" fill="#A3F1FF"/>
<path d="M35.7924 15.667L19.1752 40.8297C22.5663 32.6926 25.9272 24.5163 28.4977 16.0659L35.7924 15.667Z" fill="#A3F1FF"/>
<path d="M19.8343 7.83318C19.87 7.54983 20.1009 7.53491 20.3225 7.48085C21.9598 7.07819 25.24 6.50029 26.8999 6.3698C27.2998 6.33811 27.7673 6.26913 28.1522 6.38471C29.1042 6.6662 33.5317 13.2225 34.6639 14.2702L19.8343 7.83505V7.83318Z" fill="#A3F1FF"/>
<path d="M16.002 0.0821982C16.4696 -0.404353 17.1455 1.41695 17.2169 1.67794C17.3746 2.25397 17.936 4.86941 17.1136 5.01109C15.7673 5.24225 15.7298 0.956499 16.002 0.0821982Z" fill="#424242"/>
<path d="M8.15914 2.13449C8.27931 1.96112 9.19372 2.48495 9.37961 2.59121C9.95417 2.91744 12.412 4.66605 12.6204 5.12836C12.735 5.38189 12.8044 5.61491 12.596 5.85166C12.3876 6.06045 12.1341 5.97656 11.8881 5.91132C11.3699 5.77337 7.98452 2.38988 8.16102 2.13449H8.15914Z" fill="#424242"/>
<path d="M24.6729 0.728822C24.8645 0.831352 22.8422 4.22975 22.5512 4.49447C22.0011 4.99593 21.3232 4.76664 21.4828 3.89234C21.6011 3.23987 24.2092 0.479022 24.6729 0.728822Z" fill="#424242"/>
</svg>
