<svg width="112" height="36" viewBox="0 0 112 36" fill="none" xmlns="http://www.w3.org/2000/svg">
<path d="M67.5851 5.62578C66.9429 5.81022 66.3114 6.09338 65.6614 6.16373C59.9143 6.76248 54.1422 7.1601 48.4195 7.94475C43.9366 8.56048 39.4963 9.56349 35.0615 10.532C29.9726 11.6434 24.8485 12.6533 19.8581 14.1651C15.307 15.546 10.7051 16.9593 6.61987 19.7332C6.11559 20.0764 5.61867 20.4307 5.13648 20.8074C2.51351 22.8664 3.2807 25.2508 5.31788 26.9772C7.94679 29.2035 11.1165 30.0329 14.299 30.7437C20.3492 32.097 26.4708 32.6813 32.6256 32.9479C43.0887 33.3984 53.5204 33.1142 63.9466 32.1325C73.0584 31.2768 82.0486 29.6861 90.9373 27.4319C95.5622 26.2579 100.135 24.8152 104.321 22.3044C105.709 21.4702 106.992 20.3312 108.13 19.1138C109.538 17.6041 109.363 15.7463 107.947 14.1909C105.582 11.5924 102.535 10.3313 99.5308 9.02658C93.94 6.5997 88.1277 5.01621 82.2253 3.89746C78.8441 3.25904 75.4189 2.9235 72.0188 2.42686C71.1914 2.30566 70.3746 2.09636 69.4894 1.91253C73.4613 0.0884316 77.4641 1.09986 81.411 1.64443C86.9738 2.41381 92.4434 3.74719 97.7282 5.88444C101.73 7.50215 105.665 9.29775 108.997 12.3172C112.215 15.2342 111.549 19.1866 108.836 21.7179C104.883 25.4096 100.011 27.1229 95.0535 28.5038C92.3809 29.2493 89.7043 29.9835 87.0062 30.608C84.3149 31.2284 81.6018 31.7314 78.888 32.2153C78.226 32.3357 77.5226 32.1869 77.1437 32.1746C76.3156 32.4004 75.7382 32.5557 75.1646 32.7184C74.292 32.9611 73.2999 32.9796 72.503 33.0212C71.325 33.0849 70.1661 34.1086 68.8359 33.2667C68.3344 32.9502 67.3979 33.5232 66.6517 33.6201C64.7449 33.8715 62.8336 34.0963 60.9219 34.3097C58.8719 34.536 56.82 34.8081 54.7623 34.9241C53.5256 34.9937 52.2762 34.7284 51.0338 34.7411C50.1003 34.7497 49.1741 35.044 48.241 35.0641C46.7183 35.0988 45.1929 34.9697 43.6699 34.9968C42.6985 35.0145 41.6679 35.4844 40.7737 35.2475C38.4278 34.6309 36.1063 35.1153 33.7809 35.0393C30.9412 34.9485 28.0952 34.7817 25.2649 34.4808C18.9246 33.8095 12.5524 33.208 6.60828 30.3446C5.45902 29.7895 4.33577 29.0046 3.41519 28.071C0.469006 25.0751 0.918918 20.9098 4.2692 18.5296C8.77233 15.3319 13.7623 13.4388 18.9261 12.1034C25.5509 10.3886 32.2341 8.93086 38.8754 7.28408C45.0936 5.741 51.3895 4.87365 57.7594 4.67837C60.6999 4.58997 63.6503 4.85199 66.5991 4.98061C66.9155 4.99532 67.2245 5.17809 67.5375 5.28444C67.5522 5.39826 67.5669 5.51209 67.5816 5.62591L67.5851 5.62578Z" fill="#F8845D" stroke="#F8845D"/>
</svg>
