<svg width="28" height="28" viewBox="0 0 28 28" fill="none" xmlns="http://www.w3.org/2000/svg">
<path d="M14 1.71757C14.5494 1.7254 15.0585 1.75225 15.6046 1.82163C16.6194 1.94807 16.9797 0.485619 15.966 0.1477C15.449 0.0179028 14.5438 0.00112 14 0C10.1341 0 6.63407 1.56763 4.10075 4.10075C1.56743 6.63387 0 10.1339 0 14C0 17.8659 1.56763 21.3659 4.10075 23.8993C6.63387 26.4326 10.1339 28 14 28C17.8661 28 21.3648 26.4324 23.8993 23.8993C26.4325 21.366 28 17.8661 28 14C27.9966 13.7885 27.9317 13.5591 27.7796 13.4081C27.2458 12.8218 26.2612 13.2044 26.2813 14C26.2813 17.3904 24.9062 20.4619 22.6839 22.6827C20.4617 24.9049 17.3912 26.2802 14.0011 26.2802C10.6108 26.2802 7.53922 24.905 5.31842 22.6827C3.09623 20.4605 1.72095 17.3901 1.72095 14C1.72095 10.6096 3.09612 7.53809 5.31842 5.31728C7.629 3.0067 10.7339 1.71982 14.0011 1.71982L14 1.71757ZM25.3458 9.2906C25.7184 10.2215 27.2413 9.83104 26.9593 8.70428C26.7523 8.13697 26.4189 7.51037 26.1179 6.98449C25.6054 6.08711 24.1743 6.72826 24.586 7.75654C24.8535 8.28581 25.1131 8.73338 25.3458 9.2906ZM21.4711 4.25089C21.7351 4.45453 22.0887 4.4825 22.3819 4.33481C22.9492 4.05172 23.0118 3.26734 22.515 2.8858C22.0193 2.51431 21.5304 2.17862 20.9933 1.86869C20.1272 1.37411 19.2522 2.51654 19.9605 3.22483C20.0198 3.27966 20.0679 3.31994 20.1373 3.3591C20.6106 3.6366 21.0325 3.92191 21.4711 4.25089ZM13.1441 8.56446C13.1441 8.09229 13.5279 7.70848 14.0001 7.70848C14.4723 7.70848 14.8561 8.09226 14.8561 8.56446V13.5761L17.0648 15.2937C17.4385 15.5846 17.5068 16.125 17.2159 16.4987C16.925 16.8725 16.3845 16.9407 16.0108 16.6498L13.4731 14.676C13.2739 14.5171 13.1441 14.2732 13.1441 13.9979L13.1441 8.56446ZM22.5945 14.8539C22.1201 14.8539 21.7352 14.469 21.7352 13.9946C21.7352 13.5202 22.1201 13.1353 22.5945 13.1353H23.7C23.4941 10.7911 22.4569 8.6842 20.8859 7.11333C19.3138 5.54124 17.2057 4.50399 14.8594 4.29924V5.40139C14.8594 5.8758 14.4745 6.26073 14.0001 6.26073C13.5256 6.26073 13.1407 5.8758 13.1407 5.40139V4.29924C10.7943 4.504 8.68622 5.54235 7.11421 7.11333C5.54323 8.68543 4.50598 10.7913 4.30011 13.1353H5.40562C5.88003 13.1353 6.26495 13.5202 6.26495 13.9946C6.26495 14.469 5.88003 14.8539 5.40562 14.8539H4.299C4.50376 17.2014 5.54099 19.3107 7.11421 20.8839C8.6863 22.456 10.7945 23.4932 13.1407 23.698V22.588C13.1407 22.1136 13.5256 21.7287 14.0001 21.7287C14.4745 21.7287 14.8594 22.1136 14.8594 22.588V23.698C17.2047 23.4932 19.3128 22.456 20.8848 20.8828C22.458 19.3096 23.4952 17.2005 23.7 14.8528H22.5934L22.5945 14.8539Z" fill="black"/>
</svg>
