<svg width="87" height="50" viewBox="0 0 87 50" fill="none" xmlns="http://www.w3.org/2000/svg">
<path d="M55.564 22.6404L54.5792 22.4667L54.5792 22.4667L55.564 22.6404ZM47.6209 20.0893L46.6217 20.1293L47.6209 20.0893ZM85.046 0.766372L86.0425 0.682615C86.1005 1.37271 86.1135 2.05616 86.0844 2.73195L85.0853 2.68891L84.0863 2.64587C84.1118 2.05388 84.1004 1.45513 84.0495 0.850129L85.046 0.766372ZM84.4471 6.47214L85.4062 6.75535C85.0248 8.04681 84.4968 9.29406 83.8485 10.4905L82.9693 10.0141L82.0901 9.53773C82.6778 8.45306 83.1497 7.33481 83.488 6.18894L84.4471 6.47214ZM80.8504 13.2181L81.6368 13.8358C80.8255 14.8687 79.9275 15.8533 78.9633 16.7848L78.2685 16.0656L77.5737 15.3464C78.4781 14.4728 79.3138 13.5555 80.064 12.6004L80.8504 13.2181ZM75.3509 18.5702L75.9589 19.3641C74.9151 20.1635 73.8252 20.9101 72.7065 21.5995L72.1819 20.7482L71.6572 19.8968C72.7211 19.2412 73.7551 18.5327 74.7429 17.7762L75.3509 18.5702ZM68.8159 22.606L69.2569 23.5035C68.0589 24.0922 66.8466 24.6159 65.639 25.0691L65.2876 24.1328L64.9363 23.1966C66.082 22.7667 67.2344 22.2689 68.3749 21.7085L68.8159 22.606ZM61.6191 25.2894L61.8651 26.2587C60.5208 26.5998 59.2028 26.8429 57.9396 26.9775L57.8336 25.9831L57.7277 24.9888C58.8859 24.8653 60.11 24.6407 61.3731 24.3201L61.6191 25.2894ZM54.0033 26.008L53.8908 27.0016C52.3842 26.8311 50.9993 26.4318 49.843 25.7461L50.3531 24.8859L50.8631 24.0258C51.7143 24.5306 52.8084 24.8663 54.1158 25.0143L54.0033 26.008ZM47.9595 21.9889L47.0134 22.3128C46.784 21.6428 46.6531 20.9138 46.6217 20.1293L47.6209 20.0893L48.6201 20.0492C48.6446 20.6607 48.7452 21.1965 48.9056 21.665L47.9595 21.9889ZM47.6209 20.0893L46.6217 20.1293C46.5938 19.4331 46.5899 18.7818 46.6081 18.1739L47.6077 18.204L48.6072 18.234C48.5905 18.7908 48.5939 19.3951 48.6201 20.0492L47.6209 20.0893ZM48.142 14.5164L47.1884 14.2154C47.7829 12.3312 48.8914 11.0813 50.4445 10.9408L50.5346 11.9368L50.6246 12.9327C50.2278 12.9686 49.5757 13.296 49.0957 14.8173L48.142 14.5164ZM53.6445 13.7459L54.4332 13.131C55.1985 14.1127 55.8361 15.3725 56.2481 16.8034L55.2871 17.0801L54.3262 17.3568C53.9772 16.145 53.4482 15.1205 52.8559 14.3607L53.6445 13.7459ZM55.7522 20.7798L56.7518 20.8064C56.7344 21.4615 56.669 22.1327 56.5489 22.814L55.564 22.6404L54.5792 22.4667C54.6819 21.8844 54.7377 21.3116 54.7525 20.7533L55.7522 20.7798ZM55.564 22.6404L56.5489 22.814C56.4216 23.5358 56.2868 24.241 56.1447 24.9297L55.1653 24.7276L54.186 24.5256C54.324 23.8563 54.4552 23.1701 54.5792 22.4667L55.564 22.6404ZM54.1997 28.7552L55.1636 29.0214C54.7704 30.4449 54.341 31.7855 53.8778 33.0462L52.9391 32.7014L52.0005 32.3566C52.4434 31.1509 52.8562 29.8629 53.2358 28.4889L54.1997 28.7552ZM51.3191 36.5073L52.2164 36.9487C51.5565 38.2901 50.8488 39.5161 50.098 40.6317L49.2684 40.0733L48.4388 39.5149C49.1357 38.4795 49.7987 37.3323 50.4218 36.0658L51.3191 36.5073ZM46.6595 43.3185L47.3781 44.0139C46.3232 45.1039 45.2101 46.0286 44.049 46.798L43.4966 45.9644L42.9442 45.1308C43.9801 44.4444 44.9825 43.6134 45.941 42.623L46.6595 43.3185ZM39.798 47.8177L40.1333 48.7598C38.7419 49.2549 37.3141 49.5684 35.8669 49.7201L35.7626 48.7256L35.6584 47.731C36.9563 47.595 38.2283 47.3148 39.4628 46.8756L39.798 47.8177ZM31.6253 48.7195L31.5245 49.7144C30.1107 49.5711 28.6946 49.2967 27.2896 48.9095L27.5553 47.9454L27.821 46.9814C29.1279 47.3415 30.4336 47.5936 31.7262 47.7246L31.6253 48.7195ZM23.6432 46.5638L23.2486 47.4827C21.9577 46.9284 20.6854 46.2886 19.4426 45.5773L19.9393 44.7094L20.436 43.8415C21.6172 44.5175 22.8214 45.1226 24.0377 45.6449L23.6432 46.5638ZM16.449 42.4686L15.8681 43.2825C14.7176 42.4613 13.6038 41.5835 12.5364 40.6615L13.1901 39.9048L13.8438 39.148C14.8656 40.0307 15.9311 40.8702 17.03 41.6546L16.449 42.4686ZM10.1761 37.0527L9.45636 37.747C8.46068 36.7149 7.52413 35.6476 6.65797 34.5585L7.44065 33.936L8.22334 33.3136C9.04871 34.3515 9.94308 35.3709 10.8958 36.3584L10.1761 37.0527ZM5.03861 30.5646L4.19301 31.0984C3.40506 29.8502 2.71699 28.5888 2.14604 27.3325L3.05643 26.9188L3.96682 26.505C4.49641 27.6703 5.13987 28.8517 5.88421 30.0308L5.03861 30.5646ZM1.68596 23.0115L0.713582 23.2449C0.538399 22.5151 0.410986 21.7916 0.336099 21.0787L1.33063 20.9743L2.32515 20.8698C2.39014 21.4884 2.50172 22.1256 2.65834 22.7781L1.68596 23.0115Z" fill="#FEFEFE"/>
</svg>
