<svg width="52" height="54" viewBox="0 0 52 54" fill="none" xmlns="http://www.w3.org/2000/svg">
<path d="M29.3192 33.5776C28.9544 33.5776 28.6592 33.8728 28.6592 34.2377V40.0308C28.6592 40.3956 28.9544 40.6908 29.3192 40.6908C29.684 40.6908 29.9792 40.3956 29.9792 40.0308V34.2377C29.9792 33.8728 29.684 33.5776 29.3192 33.5776Z" fill="white"/>
<path d="M22.2059 33.5776C21.8411 33.5776 21.5459 33.8728 21.5459 34.2377V40.0308C21.5459 40.3956 21.8411 40.6908 22.2059 40.6908C22.5707 40.6908 22.8659 40.3956 22.8659 40.0308V34.2377C22.8659 33.8728 22.5707 33.5776 22.2059 33.5776Z" fill="white"/>
<path d="M50.827 20.3928H7.37044V15.8339H10.8381V17.9687C10.8381 18.3335 11.1333 18.6287 11.4981 18.6287H28.1467C28.5116 18.6287 28.8068 18.3335 28.8068 17.9687V1.32003C28.8068 0.955217 28.5116 0.660015 28.1467 0.660015H11.4981C11.1333 0.660015 10.8381 0.955217 10.8381 1.32003V2.71161H7.37044V0.660015C7.37044 0.295202 7.07524 0 6.71043 0H3.46449C3.09968 0 2.80448 0.295202 2.80448 0.660015V20.3928H0.698101C0.333288 20.3928 0.0380859 20.688 0.0380859 21.0528V25.0567C0.0380859 25.4215 0.333288 25.7167 0.698101 25.7167H2.80448V48.6084H0.770935C0.406122 48.6084 0.11092 48.9037 0.11092 49.2685V52.4918C0.11092 52.8567 0.406122 53.1519 0.770935 53.1519H50.7542C51.119 53.1519 51.4142 52.8567 51.4142 52.4918V49.2685C51.4142 48.9037 51.119 48.6084 50.7542 48.6084H48.7207V25.7167H50.827C51.1918 25.7167 51.487 25.4215 51.487 25.0567V21.0528C51.487 20.688 51.1918 20.3928 50.827 20.3928ZM12.1581 1.98005H27.4867V17.3086H12.1581V1.98005ZM7.37044 4.03164H10.8381V14.5139H7.37044V4.03164ZM4.12451 1.32003H6.05041V20.3928H4.12451V1.32003ZM50.0942 49.9285V51.8318H1.43095V49.9285H50.0942ZM4.12451 48.6084V25.7167H25.1026V48.6084H4.12451ZM26.4226 48.6084V25.7167H47.4006V48.6084H26.4226ZM50.167 24.3967H1.35812V21.7128H50.167V24.3967Z" fill="white"/>
<path d="M24.7281 7.49793H21.9688V4.73863C21.9688 4.37382 21.6736 4.07861 21.3088 4.07861H18.3362C17.9714 4.07861 17.6762 4.37382 17.6762 4.73863V7.49793H14.9169C14.552 7.49793 14.2568 7.79313 14.2568 8.15795V11.1306C14.2568 11.4954 14.552 11.7906 14.9169 11.7906H17.6762V14.5499C17.6762 14.9147 17.9714 15.2099 18.3362 15.2099H21.3088C21.6736 15.2099 21.9688 14.9147 21.9688 14.5499V11.7906H24.7281C25.0929 11.7906 25.3881 11.4954 25.3881 11.1306V8.15795C25.3881 7.79313 25.0929 7.49793 24.7281 7.49793ZM24.0681 10.4706H21.3088C20.944 10.4706 20.6488 10.7658 20.6488 11.1306V13.8899H18.9962V11.1306C18.9962 10.7658 18.701 10.4706 18.3362 10.4706H15.5769V8.81796H18.3362C18.701 8.81796 18.9962 8.52276 18.9962 8.15795V5.39864H20.6488V8.15795C20.6488 8.52276 20.944 8.81796 21.3088 8.81796H24.0681V10.4706Z" fill="white"/>
</svg>
