<svg width="28" height="28" viewBox="0 0 28 28" fill="none" xmlns="http://www.w3.org/2000/svg">
<circle cx="13.6499" cy="13.6499" r="13.1499" stroke="black"/>
<path d="M16.7778 12.1128C17.894 12.1128 18.442 12.4691 18.7505 12.9604C19.0925 13.5053 19.2104 14.3192 19.2104 15.3716V19.2007H17.7602V15.8628C17.7602 15.4362 17.7671 14.8121 17.5678 14.2993C17.4623 14.0276 17.2902 13.761 17.0112 13.5659C16.7314 13.3702 16.3871 13.2768 15.9907 13.2768C15.6083 13.2769 15.2705 13.3522 14.9839 13.5112C14.6945 13.6718 14.4875 13.9015 14.3442 14.1616C14.0706 14.6587 14.0249 15.2782 14.0249 15.8042V19.2007H12.5844V12.2993H13.936V13.3813H14.768L14.9087 13.1137C15.1502 12.6526 15.7802 12.1129 16.7778 12.1128ZM10.0493 12.3091V19.2007H8.60007V12.3091H10.0493ZM9.3198 8.4028C9.82095 8.40285 10.2368 8.81864 10.2368 9.31979C10.2367 9.82317 9.8285 10.2367 9.3198 10.2368C8.81864 10.2368 8.40286 9.82094 8.40281 9.31979C8.40281 8.81861 8.81861 8.4028 9.3198 8.4028Z" stroke="black"/>
</svg>
