<svg width="81" height="93" viewBox="0 0 81 93" fill="none" xmlns="http://www.w3.org/2000/svg">
<path d="M43.456 37.0525L42.6132 37.5907L42.6132 37.5907L43.456 37.0525ZM35.8799 40.5462L35.1711 41.2515L35.8799 40.5462ZM50.3753 1.00002L51.0527 0.264312C51.5621 0.73336 52.034 1.22793 52.4697 1.74537L51.7047 2.38943L50.9397 3.0335C50.5581 2.58022 50.1447 2.14694 49.698 1.73572L50.3753 1.00002ZM53.7936 5.60765L54.6915 5.16754C55.2842 6.37671 55.7389 7.65252 56.0707 8.97222L55.1008 9.21605L54.131 9.45987C53.8302 8.26345 53.4215 7.12061 52.8956 6.04776L53.7936 5.60765ZM55.7073 13.0091L56.7044 12.9321C56.8054 14.2417 56.81 15.5743 56.7299 16.9126L55.7317 16.8528L54.7335 16.793C54.8086 15.5379 54.8038 14.297 54.7103 13.086L55.7073 13.0091ZM55.2768 20.671L56.2617 20.8445C56.0335 22.1392 55.7357 23.4264 55.3781 24.6908L54.4159 24.4186L53.4536 24.1464C53.7937 22.944 54.0761 21.7227 54.292 20.4974L55.2768 20.671ZM53.1933 28.0637L54.1252 28.4265C53.641 29.6705 53.1023 30.8761 52.5194 32.0267L51.6273 31.5748L50.7353 31.1228C51.2883 30.0312 51.8005 28.8852 52.2614 27.7009L53.1933 28.0637ZM49.7076 34.908L50.5444 35.4556C49.785 36.6161 48.9786 37.6866 48.1393 38.6402L47.3886 37.9794L46.638 37.3187C47.4076 36.4444 48.1572 35.451 48.8708 34.3605L49.7076 34.908ZM44.5843 40.5885L45.1735 41.3965C43.9485 42.2899 42.6583 42.9326 41.3428 43.2096L41.1367 42.2311L40.9307 41.2526C41.899 41.0486 42.932 40.5559 43.995 39.7806L44.5843 40.5885ZM37.4142 41.7163L36.9365 42.5948C36.3144 42.2565 35.7249 41.8081 35.1711 41.2515L35.8799 40.5462L36.5888 39.8408C37.0205 40.2746 37.4569 40.6012 37.892 40.8378L37.4142 41.7163ZM35.8799 40.5462L35.1711 41.2515C34.6796 40.7576 34.2362 40.2806 33.8385 39.8205L34.595 39.1665L35.3515 38.5125C35.7158 38.9339 36.1271 39.3768 36.5888 39.8408L35.8799 40.5462ZM32.4943 36.089L31.5884 36.5124C30.7518 34.7224 30.7228 33.052 31.7718 31.8981L32.5117 32.5707L33.2517 33.2433C32.9837 33.5381 32.7248 34.2204 33.4003 35.6656L32.4943 36.089ZM36.026 31.7996L36.191 30.8133C37.4187 31.0187 38.7404 31.5154 40.0117 32.2906L39.4911 33.1444L38.9705 33.9982C37.8938 33.3416 36.8112 32.9449 35.861 32.7859L36.026 31.7996ZM42.3361 35.5549L43.0903 34.8983C43.5206 35.3926 43.9264 35.9312 44.2988 36.5142L43.456 37.0525L42.6132 37.5907C42.2949 37.0923 41.9485 36.6327 41.5818 36.2115L42.3361 35.5549ZM43.456 37.0525L44.2988 36.5142C44.6933 37.132 45.071 37.7425 45.4321 38.3459L44.5741 38.8595L43.7161 39.3731C43.3651 38.7868 42.9976 38.1927 42.6132 37.5907L43.456 37.0525ZM46.5871 42.4792L47.4771 42.0233C48.1503 43.3377 48.7408 44.6155 49.2524 45.8574L48.3278 46.2383L47.4032 46.6192C46.9139 45.4316 46.3468 44.2037 45.697 42.935L46.5871 42.4792ZM49.7088 50.1373L50.6683 49.8555C51.0896 51.2899 51.3976 52.6715 51.5991 54.001L50.6104 54.1509L49.6217 54.3008C49.4346 53.0667 49.1471 51.7733 48.7493 50.4191L49.7088 50.1373ZM50.8839 58.3057L51.8835 58.3319C51.8438 59.8483 51.6494 61.2822 51.3147 62.6343L50.344 62.3939L49.3733 62.1536C49.6719 60.9474 49.8481 59.6573 49.8842 58.2795L50.8839 58.3057ZM48.8733 66.2606L49.7575 66.7278C49.0675 68.0336 48.228 69.2302 47.2647 70.3208L46.5152 69.6588L45.7657 68.9969C46.6296 68.0187 47.377 66.952 47.9891 65.7935L48.8733 66.2606ZM43.4638 72.4528L44.0624 73.2538C42.9242 74.1045 41.6955 74.8603 40.3988 75.5254L39.9424 74.6356L39.486 73.7458C40.6922 73.1271 41.8245 72.4296 42.8651 71.6518L43.4638 72.4528ZM36.1264 76.2641L36.4573 77.2078C35.1316 77.6727 33.7618 78.062 32.3653 78.3787L32.1441 77.4035L31.9229 76.4283C33.2501 76.1272 34.5464 75.7585 35.7955 75.3204L36.1264 76.2641ZM28.0577 78.1138L28.1803 79.1063C26.7775 79.2796 25.3634 79.3865 23.9536 79.4293L23.9232 78.4298L23.8928 77.4303C25.2425 77.3892 26.5951 77.2869 27.9351 77.1213L28.0577 78.1138ZM19.7741 78.3678L19.7137 79.366C18.2822 79.2792 16.8705 79.1266 15.4958 78.9103L15.6513 77.9224L15.8068 76.9346C17.1167 77.1408 18.465 77.2866 19.8346 77.3696L19.7741 78.3678ZM11.6017 77.0639L11.3399 78.0291C9.91532 77.6427 8.55532 77.179 7.28504 76.6399L7.67573 75.7194L8.06641 74.7988C9.24466 75.2989 10.5177 75.7338 11.8634 76.0988L11.6017 77.0639ZM4.02346 73.7684L3.46514 74.5981C2.84248 74.179 2.25926 73.7323 1.72193 73.2579L2.38378 72.5083L3.04563 71.7586C3.51192 72.1703 4.02509 72.5642 4.58178 72.9388L4.02346 73.7684Z" fill="#FF9A6C"/>
</svg>
