<svg width="23" height="24" viewBox="0 0 23 24" fill="none" xmlns="http://www.w3.org/2000/svg">
<path d="M23 7.91918V11.5877L11.7144 3.81621C11.6501 3.77125 11.5746 3.74924 11.501 3.74924C11.4264 3.74924 11.3509 3.77124 11.2875 3.81621L0 11.5867V7.91894L11.4999 0L23 7.91918ZM19.307 0.751094H16.7792V2.68633L19.307 4.42644V0.751094ZM11.4999 4.61677L20.0078 10.4761L20.0087 24H13.8468V15.842H9.15193V24H2.99099V10.4761L11.4999 4.61677ZM12.2493 7.52H10.7486C10.537 7.52 10.3646 7.69602 10.3646 7.91318V9.23236H9.0802C8.86862 9.23236 8.69618 9.40934 8.69618 9.6265V11.1657C8.69618 11.3829 8.86862 11.5589 9.0802 11.5589H10.3646V12.8771C10.3646 13.0943 10.537 13.2703 10.7486 13.2703H12.2493C12.4618 13.2703 12.6333 13.0943 12.6333 12.8771V11.5589H13.9177C14.1302 11.5589 14.3017 11.3829 14.3017 11.1657V9.6265C14.3017 9.40934 14.1302 9.23236 13.9177 9.23236H12.6333V7.91318C12.6333 7.69603 12.4618 7.52 12.2493 7.52Z" fill="black"/>
</svg>
