<svg width="49" height="53" viewBox="0 0 49 53" fill="none" xmlns="http://www.w3.org/2000/svg">
<path d="M24.0317 27.4917C31.1266 27.4917 36.8977 19.9616 36.8977 12.8672C36.8977 5.77287 31.1266 0 24.0317 0C16.9367 0 11.165 5.77287 11.165 12.8672C11.1662 19.961 16.9373 27.4917 24.0317 27.4917Z" fill="#ED750F"/>
<path d="M34.9812 27.8869C36.9798 29.1854 38.3567 31.3554 38.5704 33.8565C40.2788 34.2392 41.5608 35.7662 41.5608 37.5888C41.5608 39.6994 39.8436 41.4166 37.733 41.4166C35.6225 41.4166 33.9053 39.6994 33.9053 37.5888C33.9053 35.7998 35.1413 34.2975 36.8026 33.88C36.5564 31.5657 35.0236 29.6347 32.9354 28.8091L24.2858 36.914L15.5219 28.7013C13.1463 29.5034 11.4197 31.7147 11.3361 34.3376C11.6771 34.5354 11.9527 34.8417 12.1217 35.2127C13.3801 35.8063 14.4908 37.0559 15.3417 38.8349C15.4842 39.1347 15.5025 39.4727 15.3983 39.7813C15.9082 41.0939 16.1997 42.5284 16.1997 43.7333C16.1997 45.4216 16.1997 47.0181 14.3595 47.428C14.1598 47.594 13.9107 47.6847 13.6487 47.6847H12.4185C11.8019 47.6847 11.3002 47.1824 11.3002 46.5664L11.3014 46.5229C11.3249 45.9287 11.8225 45.4481 12.4185 45.4481H13.6481C13.7741 45.4481 13.8972 45.4693 14.0155 45.5111C14.0903 45.4899 14.1139 45.4723 14.1139 45.4723C14.2505 45.2297 14.2505 44.2191 14.2505 43.7339C14.2505 42.7551 14.0055 41.5733 13.5762 40.475C13.353 40.3484 13.1734 40.157 13.0627 39.9255C12.3166 38.3644 11.3031 37.3562 10.4793 37.3562C9.63657 37.3562 8.57245 38.4463 7.83045 40.0675C7.70914 40.3313 7.49655 40.5468 7.23449 40.6752C6.84642 41.7264 6.63324 42.8081 6.63324 43.7333C6.63324 44.1408 6.63324 45.2226 6.7893 45.4764C6.79106 45.4764 6.82581 45.4976 6.92356 45.5217C7.05076 45.4729 7.18738 45.4475 7.32401 45.4475H8.55596C9.13072 45.4475 9.60948 45.8851 9.66778 46.4528L9.67426 46.5223C9.67426 47.1824 9.17253 47.6847 8.55655 47.6847H7.32459C7.08021 47.6847 6.84406 47.6035 6.64973 47.4545C5.94601 47.322 5.45016 47.0116 5.13629 46.5064C4.75586 45.8957 4.68637 45.0936 4.68637 43.7333C4.68637 42.5396 4.96197 41.1657 5.46253 39.8531C5.38892 39.5722 5.41365 39.2789 5.53555 39.0145C6.05731 37.8744 6.7204 36.8981 7.45297 36.192C7.85577 35.8039 8.28861 35.4918 8.74146 35.2639C8.91224 34.8658 9.20786 34.5396 9.57003 34.3329C9.63834 31.6063 11.087 29.2219 13.2459 27.848C5.65686 29.607 0 36.4016 0 44.5242C0 49.2047 10.759 53 24.0314 53C37.3031 53 48.0627 49.2047 48.0627 44.5242C48.0627 36.4605 42.4871 29.7042 34.9812 27.8869Z" fill="#ED750F"/>
<path d="M37.7335 39.3554C38.7092 39.3554 39.5001 38.5644 39.5001 37.5887C39.5001 36.613 38.7092 35.822 37.7335 35.822C36.7578 35.822 35.9668 36.613 35.9668 37.5887C35.9668 38.5644 36.7578 39.3554 37.7335 39.3554Z" fill="#ED750F"/>
</svg>
