<svg width="53" height="45" viewBox="0 0 53 45" fill="none" xmlns="http://www.w3.org/2000/svg">
<path d="M24.6582 34.2156V44.9968H29.5966L29.5938 30.5564L24.9317 34.0375C24.8443 34.1051 24.7484 34.1564 24.6582 34.2156Z" fill="#5943A5"/>
<path d="M8.74618 28.7026C6.53913 27.6061 5.61745 24.9903 6.64621 22.7523C7.67787 20.5086 10.3556 19.4995 12.6134 20.5086L22.3014 24.8381L26.1405 20.0407C26.2617 19.8885 26.3857 19.7419 26.5125 19.5982C24.9369 18.0958 22.9271 17.16 20.7539 16.9345C20.7426 16.9345 20.7285 16.9345 20.7201 16.9317C20.3818 16.9007 20.0464 16.8781 19.7082 16.8781H9.88813C9.6119 16.8781 9.33284 16.8894 9.05664 16.9091C3.89845 17.3404 0 21.5797 0 26.766V44.9976H4.93551V30.9606C4.93551 30.3377 5.44006 29.8331 6.06299 29.8331C6.68593 29.8331 7.19047 30.3377 7.19047 30.9606V44.9976H22.403V34.9098C21.6955 34.9296 20.9823 34.7858 20.32 34.456L8.74618 28.7026Z" fill="#5943A5"/>
<path d="M43.9073 18.2251H34.6111C32.4858 18.2251 30.4789 18.9946 28.923 20.3758C28.892 20.4096 28.8554 20.4463 28.8187 20.4773C28.799 20.4942 28.7792 20.5083 28.7623 20.5252C28.4551 20.8099 28.1704 21.1199 27.9055 21.4526L23.5224 26.9293C23.2011 27.3295 22.6514 27.462 22.1807 27.2534L11.6982 22.5687C10.5651 22.0585 9.22052 22.5687 8.6991 23.6962C8.18046 24.8209 8.64555 26.1344 9.75327 26.6868L21.3239 32.4398C21.8707 32.7132 22.4909 32.7358 23.0461 32.5272C23.0715 32.5159 23.0941 32.499 23.1222 32.4877C23.2829 32.4201 23.4408 32.3412 23.5845 32.2341L30.0506 27.4084C30.2507 27.2591 30.4875 27.1829 30.7242 27.1829C30.8962 27.1829 31.0709 27.2224 31.2288 27.3042C31.6093 27.4958 31.8517 27.8848 31.8517 28.3104V45H44.8518L44.849 30.9601C44.849 30.3371 45.3536 29.8326 45.9765 29.8326C46.5994 29.8326 47.104 30.3371 47.104 30.9601V44.9971H52.4962V26.8167C52.4962 22.0785 48.6425 18.2251 43.9073 18.2251Z" fill="#5943A5"/>
<path d="M47.0978 8.22465C47.0978 12.7656 43.4166 16.4493 38.8732 16.4493C34.3298 16.4493 30.6485 12.7652 30.6485 8.22465C30.6485 3.68089 34.3298 0 38.8732 0C43.4166 0 47.0978 3.68125 47.0978 8.22465Z" fill="#5943A5"/>
<path d="M9.70127 14.6678C10.0113 14.648 10.3045 14.6396 10.5864 14.6396H19.0455C19.3951 14.6396 19.7446 14.6593 20.0941 14.6988C20.6973 14.758 21.2779 14.8735 21.8417 15.0286C22.2307 14.1153 22.4449 13.1062 22.4449 12.0577C22.4449 7.9029 19.0765 4.53149 14.9187 4.53149C10.7527 4.53149 7.39258 7.89987 7.39258 12.0577C7.39258 13.0865 7.59552 14.0674 7.96477 14.9609C8.52569 14.8143 9.10935 14.7185 9.70127 14.6678Z" fill="#5943A5"/>
</svg>
