<svg width="59" height="55" viewBox="0 0 59 55" fill="none" xmlns="http://www.w3.org/2000/svg">
<path d="M6.56459 35.7922C6.52772 35.786 6.45397 35.7799 6.38022 35.8352L0.0993514 40.2323C0.0317489 40.2784 0.0102406 40.3491 0.00409692 40.386C-0.00204833 40.4229 -0.00819437 40.4966 0.0409708 40.5673L9.99986 54.6993C10.0767 54.8069 10.2272 54.8284 10.3409 54.7485L16.6126 50.3544C16.6802 50.3052 16.7048 50.2315 16.7109 50.1946C16.7171 50.1577 16.7232 50.087 16.6741 50.0194L6.72461 35.8906C6.67237 35.8229 6.61068 35.7983 6.56459 35.7922ZM9.93237 49.2327L11.2107 48.3385C11.5026 48.1357 11.9113 48.2033 12.114 48.4983C12.3168 48.7902 12.2492 49.1989 11.9542 49.4017L10.676 50.2959C10.5653 50.3758 10.4332 50.4127 10.3072 50.4127C10.1044 50.4127 9.90161 50.3174 9.77254 50.1361C9.56359 49.8411 9.63737 49.4355 9.93237 49.2327Z" fill="#E3B200"/>
<path d="M54.4938 23.9745C52.0939 25.1421 48.68 27.3085 46.05 28.9862C46.4218 30.2707 46.3388 32.0037 45.2787 33.1376C43.2506 35.2947 40.9429 35.1411 38.5 34.9782C36.6225 34.8522 34.6836 34.7201 32.4619 35.4975C32.1239 35.6173 31.7552 35.4391 31.6353 35.1011C31.5155 34.7631 31.6937 34.3943 32.0317 34.2745C34.5022 33.411 36.6716 33.5554 38.5829 33.6876C40.8937 33.8443 42.7251 33.9672 44.3291 32.2587C45.0666 31.4659 45.082 30.0463 44.7194 29.106C44.7132 29.0999 44.7071 29.0906 44.7009 29.0784C44.6579 29.0138 44.6333 28.9401 44.6149 28.8663C43.985 27.5788 42.5869 27.1702 41.5114 27.0503C40.5311 26.9458 39.2252 26.7891 37.8393 26.6232L37.6703 26.6047C33.8262 26.1438 29.4688 25.6214 27.8805 25.6491H27.8345C27.7791 25.646 22.4017 25.4678 18.5788 29.0138C18.1425 29.4164 17.3067 30.2368 16.3418 31.1802C14.0832 33.3926 11.075 36.3333 9.50781 37.6024L15.8962 46.6669C17.0823 45.6375 18.4006 44.7802 19.8294 44.1195C21.4857 43.3513 23.2433 42.8627 25.0563 42.6691C30.0773 42.1282 36.9361 41.1972 41.1148 39.8482C45.4198 38.4563 50.1856 36.4251 56.9216 28.3279C57.53 27.5965 58.2859 26.687 58.6915 25.8665C59.2416 24.7665 58.8943 24.41 58.7468 24.2625C57.9971 23.4759 56.4822 22.9934 54.4941 23.9737L54.4938 23.9745Z" fill="#E3B200"/>
<path d="M44.1878 20.6619L55.5202 9.32951C57.6527 7.197 57.6527 3.73389 55.5202 1.60138C54.4877 0.568911 53.1172 0.000404266 51.6545 0.000404266C50.2041 0.000404266 48.8337 0.565804 47.8074 1.58596L44.6761 5.11971C44.5532 5.25799 44.375 5.33788 44.1906 5.33788C44.0063 5.33788 43.828 5.25799 43.7051 5.11971L40.5739 1.58596C38.4414 -0.531208 34.9875 -0.528142 32.8642 1.59211L32.8611 1.59518C30.7286 3.72769 30.7286 7.1908 32.8611 9.32331L44.1878 20.6619Z" fill="#E3B200"/>
</svg>
