<svg width="24" height="59" viewBox="0 0 24 59" fill="none" xmlns="http://www.w3.org/2000/svg">
<path d="M12.5755 10.321C15.4256 10.321 17.736 8.01056 17.736 5.16049C17.736 2.31043 15.4256 0 12.5755 0C9.72545 0 7.41502 2.31043 7.41502 5.16049C7.41502 8.01056 9.72545 10.321 12.5755 10.321Z" fill="#269BD8"/>
<path d="M23.8713 23.3264L20.7649 16.2201C20.7552 16.2211 20.7456 16.2231 20.7368 16.2231C19.8618 13.5387 17.585 11.6192 14.9045 11.6192H9.09645C6.49732 11.6192 4.27379 13.4206 3.34159 15.9781L0.128742 23.3264C-0.175215 24.0224 0.0774373 24.8665 0.693096 25.2082L4.14698 27.1355L1.725 41.5396L1.6553 41.95C1.6553 42.0575 1.66402 42.1882 1.67757 42.3334C2.37067 42.706 4.03663 43.0197 6.26403 43.222V56.7065C6.26403 57.9755 7.29303 59.0036 8.56113 59.0036C9.83117 59.0036 10.8592 57.9746 10.8592 56.7065V43.4495C11.2348 43.4553 11.6133 43.4592 11.9995 43.4592C12.3858 43.4592 12.7652 43.4553 13.1408 43.4495V56.7065C13.1408 57.9755 14.1698 59.0036 15.4389 59.0036C16.708 59.0036 17.736 57.9746 17.736 56.7065V43.222C19.9644 43.0197 21.6294 42.706 22.3225 42.3334C22.336 42.1882 22.3438 42.0575 22.3438 41.95L22.275 41.5396L19.8521 27.1355L23.306 25.2082C23.9226 24.8655 24.1752 24.0214 23.8713 23.3264ZM9.67338 26.3766C10.0093 25.5431 9.69952 24.5683 8.89897 24.1008L4.48288 21.5171C4.46449 21.5065 4.4461 21.5007 4.4277 21.4929C4.50515 19.9083 5.81003 18.6489 7.4121 18.6489C8.99674 18.6489 10.289 19.8792 10.3926 21.4378C11.0731 21.1077 11.8737 20.8821 12.7439 20.8124C15.3576 20.6033 17.5879 21.8501 17.7273 23.5974C17.8676 25.3418 15.8609 26.9254 13.2492 27.1345C11.864 27.2439 10.5882 26.9429 9.67338 26.3766Z" fill="#269BD8"/>
</svg>
