<svg version="1.2" xmlns="http://www.w3.org/2000/svg" viewBox="0 0 18 21" width="18" height="21">
	<title>map-pin</title>
	<style>
		.s0 { fill: none;stroke: #f8845d;stroke-linecap: round;stroke-linejoin: round;stroke-width: 1.5 } 
		.s1 { fill: #f8845d } 
	</style>
	<path fill-rule="evenodd" class="s0" d="m13 6.5c0 2.2-1.8 4-4 4-2.2 0-4-1.8-4-4 0-2.2 1.8-4 4-4 1.1 0 2.1 0.5 2.8 1.2 0.8 0.8 1.2 1.8 1.2 2.8z"/>
	<path class="s1" d="m9.8 10.5c0-0.4-0.4-0.7-0.8-0.7-0.4 0-0.7 0.3-0.7 0.7zm-1.5 6c0 0.5 0.3 0.8 0.7 0.8 0.4 0 0.8-0.3 0.8-0.8zm0.6-12.3c-0.4 0-0.7 0.4-0.6 0.8 0 0.4 0.4 0.7 0.8 0.7zm1.3 2.2c0.2 0.4 0.6 0.6 1 0.4 0.4-0.2 0.6-0.6 0.4-1zm-4.3 8.9c0.4-0.1 0.7-0.4 0.7-0.8-0.1-0.4-0.4-0.7-0.8-0.7zm-3.4 0.3l-0.3-0.7q-0.1 0-0.1 0zm-0.4 1.4l-0.6 0.5q0 0.1 0.1 0.1zm2.6 1.2l0.1-0.8q0 0 0 0zm0 0l-0.2 0.8q2.2 0.4 4.4 0.4v-0.8-0.7q-2.1 0-4.1-0.4zm8.5 0l-0.1-0.8q-0.1 0-0.1 0.1zm2.6-1.2l0.5 0.5q0 0 0.1 0zm-0.5-1.4l0.4-0.7q0 0 0 0zm-3.2-1.7c-0.4-0.1-0.8 0.2-0.8 0.6-0.1 0.4 0.2 0.8 0.6 0.8zm-3.1-3.2h-0.8v6h0.8 0.7v-6zm0-5.6l0.1 0.8c0.5-0.1 1 0.2 1.2 0.7l0.7-0.3 0.7-0.3c-0.5-1.1-1.6-1.8-2.8-1.6zm-3.1 9.5v-0.7c-1.3 0.1-2.5 0.5-3.6 1.1l0.4 0.7 0.3 0.6q1.4-0.7 3-0.9zm-3.2 1l-0.4-0.6c-0.4 0.2-0.8 0.6-1 1.1-0.1 0.5 0 1 0.3 1.4l0.6-0.5 0.6-0.5q0-0.1 0 0 0 0 0 0 0 0 0-0.1 0.1 0 0.3-0.2zm-0.5 1.4l-0.5 0.6c0.9 0.7 1.9 1.2 3 1.3l0.1-0.7 0.1-0.7c-0.8-0.2-1.6-0.5-2.2-1zm6.8 1.6v-0.8q0 0 0 0zm0 0v0.8q2.2 0 4.4-0.5l-0.2-0.7-0.1-0.8q-2 0.5-4.1 0.5zm4.2-0.5l0.1 0.8c1.1-0.2 2.2-0.6 3-1.4l-0.5-0.5-0.5-0.6c-0.6 0.5-1.4 0.9-2.2 1zm2.6-1.2l0.6 0.5c0.3-0.4 0.5-0.9 0.3-1.4-0.1-0.5-0.5-0.9-0.9-1.1l-0.4 0.6-0.4 0.6q0.1 0.2 0.2 0.3 0.1 0 0.1 0 0 0 0 0 0 0-0.1 0zm-0.4-1.4l0.3-0.6c-1-0.6-2.2-1-3.5-1.1l-0.1 0.7v0.8q1.5 0.1 2.9 0.9z"/>
</svg>